<?xml version="1.0" standalone="no"?>
<!DOCTYPE svg PUBLIC "-//W3C//DTD SVG 20010904//EN"
 "http://www.w3.org/TR/2001/REC-SVG-20010904/DTD/svg10.dtd">
<svg version="1.0" xmlns="http://www.w3.org/2000/svg"
 width="550.000000pt" height="294.000000pt" viewBox="0 0 550.000000 294.000000"
 preserveAspectRatio="xMidYMid meet">

<g transform="translate(0.000000,294.000000) scale(0.100000,-0.100000)"
fill="#000000" stroke="none">
<path d="M0 1470 l0 -1470 2750 0 2750 0 0 1470 0 1470 -2750 0 -2750 0 0
-1470z m4174 595 c142 -67 225 -199 213 -342 -9 -123 -83 -225 -207 -286 -56
-28 -77 -32 -157 -35 -124 -5 -207 25 -286 102 -80 79 -101 130 -101 246 0 83
3 101 26 145 51 98 148 173 252 195 74 16 199 4 260 -25z m-2626 -111 c30 -38
28 -51 -3 -20 -14 14 -25 29 -25 34 0 5 -7 15 -15 22 -13 11 -15 -7 -16 -151
-1 -188 -3 -227 -14 -251 -4 -11 -3 -18 4 -18 6 0 11 -9 11 -19 0 -11 4 -21
10 -23 13 -4 -2 -90 -16 -95 -7 -2 -14 16 -17 42 -5 36 -18 59 -57 104 -27 32
-50 65 -50 74 0 9 -4 19 -10 22 -13 8 -13 159 -1 183 5 9 17 35 26 56 10 21
35 59 58 83 l40 43 26 -29 c14 -16 36 -42 49 -57z m1550 46 c20 -11 44 -25 53
-32 13 -9 23 -6 52 16 49 37 104 44 137 18 22 -18 25 -28 25 -86 l0 -65 41
-16 c43 -16 76 -46 88 -79 5 -14 -4 -29 -34 -57 -23 -22 -49 -39 -58 -39 -31
0 -41 -20 -35 -74 4 -42 1 -56 -17 -78 -34 -44 -100 -37 -157 15 l-23 20 -40
-28 c-22 -15 -58 -30 -82 -32 -63 -7 -83 18 -82 103 l1 63 -34 12 c-52 17 -93
56 -93 89 0 33 41 72 94 90 l34 11 -2 65 c-1 58 2 68 23 85 30 24 62 24 109
-1z m-848 -99 c0 -5 8 -12 18 -15 30 -10 63 -73 60 -114 l-3 -37 -127 -3 -128
-3 0 -29 c0 -39 61 -90 107 -90 47 0 103 34 103 62 0 18 20 38 37 38 22 0 14
-39 -14 -71 -80 -91 -216 -75 -259 29 -32 77 -19 147 38 204 36 36 41 38 103
38 36 0 65 -4 65 -9z m121 -13 c7 -13 20 -30 31 -39 10 -9 18 -19 18 -23 0 -4
8 -16 19 -27 18 -20 19 -20 45 13 69 84 82 98 94 98 20 0 14 -25 -15 -56 -16
-16 -41 -46 -56 -67 -23 -31 -26 -40 -15 -50 7 -8 27 -31 43 -51 17 -21 40
-50 53 -65 l22 -26 -22 -3 c-11 -2 -25 2 -29 10 -4 7 -19 27 -34 43 -15 17
-33 40 -42 53 -15 21 -43 31 -43 14 0 -5 -8 -17 -18 -28 -10 -10 -30 -36 -46
-56 -16 -21 -37 -38 -47 -38 -11 0 -19 3 -19 6 0 8 55 79 92 119 15 17 28 33
28 38 0 6 -32 46 -66 81 -22 24 -44 63 -37 69 13 14 33 7 44 -15z m887 -678
c62 -38 62 -115 1 -156 -16 -10 -29 -23 -29 -28 0 -14 79 -118 114 -148 l30
-28 -36 0 c-56 0 -81 16 -121 78 -46 71 -66 92 -89 92 -10 0 -18 -8 -19 -17
-7 -102 0 -133 26 -133 7 0 17 -4 20 -10 4 -6 -26 -10 -82 -10 l-88 0 28 23
28 22 -3 155 c-3 152 -3 155 -25 158 -13 2 -23 8 -23 13 0 5 52 9 118 9 99 0
122 -3 150 -20z m754 -112 c67 -73 127 -134 133 -136 7 -2 8 40 4 120 -4 68
-7 124 -8 126 0 1 -12 2 -26 2 -14 0 -25 5 -25 10 0 6 30 10 70 10 66 0 98
-15 48 -22 -23 -3 -23 -5 -26 -180 -2 -167 -4 -178 -21 -178 -11 0 -21 4 -23
9 -3 8 -114 134 -182 206 -15 16 -37 41 -47 53 -10 13 -22 21 -28 18 -10 -7
-7 -229 4 -246 4 -6 19 -16 33 -23 26 -11 26 -11 -16 -15 -23 -2 -59 -2 -80 0
l-37 3 30 15 30 15 3 149 c3 154 -2 176 -39 176 -11 0 -19 5 -19 10 0 6 22 10
49 10 l49 0 124 -132z m-2715 116 c-3 -3 -12 -4 -19 -1 -8 3 -5 6 6 6 11 1 17
-2 13 -5z m990 0 c-3 -3 -12 -4 -19 -1 -8 3 -5 6 6 6 11 1 17 -2 13 -5z m163
-4 c0 -5 -4 -10 -10 -10 -5 0 -10 5 -10 10 0 6 5 10 10 10 6 0 10 -4 10 -10z
m-97 -167 c-13 -2 -33 -2 -45 0 -13 2 -3 4 22 4 25 0 35 -2 23 -4z"/>
<path d="M3000 1971 c-11 -22 -13 -55 -4 -88 6 -20 11 -22 48 -17 38 6 96 46
96 66 0 14 -79 58 -104 58 -15 0 -30 -8 -36 -19z"/>
<path d="M3234 1971 c-47 -29 -50 -40 -18 -71 38 -36 100 -47 114 -20 13 24
13 66 0 91 -14 25 -56 25 -96 0z"/>
<path d="M3145 1890 c-18 -20 -17 -20 13 -20 34 0 41 10 19 29 -11 8 -18 6
-32 -9z"/>
<path d="M3080 1803 c-17 -26 -30 -52 -30 -57 1 -6 13 -29 28 -51 27 -39 29
-40 87 -40 59 0 60 0 88 43 26 39 28 46 17 73 -27 64 -47 79 -106 79 -54 0
-55 0 -84 -47z m127 -15 c23 -30 23 -49 -2 -74 -31 -31 -61 -28 -88 8 -19 25
-19 28 -3 52 12 19 25 26 50 26 18 0 38 -6 43 -12z"/>
<path d="M3028 1833 c-15 -4 -16 -8 -7 -26 11 -20 12 -20 25 -2 8 10 14 22 14
27 0 8 -4 9 -32 1z"/>
<path d="M3276 1833 c-6 -6 16 -43 25 -43 4 0 9 9 12 19 3 13 -1 21 -14 24
-10 3 -20 3 -23 0z"/>
<path d="M2920 1802 c-63 -34 -65 -67 -8 -102 42 -25 78 -26 78 -2 0 10 5 23
12 30 9 9 8 21 -2 52 -15 45 -29 49 -80 22z"/>
<path d="M3334 1787 c-12 -26 -14 -42 -7 -63 15 -44 37 -52 80 -29 80 44 67
89 -34 120 -19 5 -26 0 -39 -28z"/>
<path d="M3283 1690 c-17 -26 -16 -30 6 -30 26 0 33 13 18 34 -11 15 -13 15
-24 -4z"/>
<path d="M3015 1690 c-9 -15 4 -30 26 -30 22 0 24 11 7 28 -15 15 -25 15 -33
2z"/>
<path d="M2994 1604 c-16 -86 33 -118 107 -69 l40 26 -22 30 c-23 33 -26 34
-81 44 -36 6 -37 5 -44 -31z"/>
<path d="M3273 1633 c-42 -5 -90 -58 -72 -80 19 -22 65 -43 94 -43 35 0 52 38
39 87 -10 40 -13 42 -61 36z"/>
<path d="M3150 1605 c7 -8 16 -15 20 -15 4 0 10 7 14 15 4 11 -2 15 -21 15
-21 0 -24 -2 -13 -15z"/>
<path d="M2105 1845 c-19 -20 -35 -45 -35 -55 0 -19 7 -20 115 -20 71 0 115 4
115 10 0 17 -24 53 -50 77 -18 16 -37 23 -67 23 -35 0 -48 -6 -78 -35z"/>
<path d="M3110 1135 c0 -41 0 -78 0 -82 0 -5 16 -9 36 -11 52 -5 84 27 84 83
0 54 -31 85 -83 85 l-37 0 0 -75z"/>
</g>
</svg>
